<svg width="257" height="96" viewBox="0 0 257 96" fill="none" xmlns="http://www.w3.org/2000/svg">
<path d="M136.163 13.0402V35.2631H142.152V13.0402H150.315V8H128V13.0402H136.163Z" fill="white"/>
<path d="M154.205 25.4117C154.205 24.6226 154.282 23.8462 154.434 23.0825C154.587 22.3189 154.841 21.6443 155.197 21.0588C155.579 20.4733 156.074 20.0024 156.685 19.646C157.295 19.2642 158.058 19.0732 158.973 19.0732C159.889 19.0732 160.652 19.2642 161.262 19.646C161.898 20.0024 162.394 20.4733 162.75 21.0588C163.131 21.6443 163.398 22.3189 163.551 23.0825C163.703 23.8462 163.78 24.6226 163.78 25.4117C163.78 26.2009 163.703 26.9773 163.551 27.7409C163.398 28.4791 163.131 29.1537 162.75 29.7647C162.394 30.3501 161.898 30.8211 161.262 31.1775C160.652 31.5338 159.889 31.712 158.973 31.712C158.058 31.712 157.295 31.5338 156.685 31.1775C156.074 30.8211 155.579 30.3501 155.197 29.7647C154.841 29.1537 154.587 28.4791 154.434 27.7409C154.282 26.9773 154.205 26.2009 154.205 25.4117ZM148.789 25.4117C148.789 26.99 149.03 28.4155 149.514 29.6883C149.997 30.9611 150.683 32.0557 151.573 32.9721C152.463 33.863 153.531 34.5503 154.778 35.034C156.024 35.5177 157.422 35.7595 158.973 35.7595C160.525 35.7595 161.923 35.5177 163.169 35.034C164.441 34.5503 165.522 33.863 166.412 32.9721C167.302 32.0557 167.988 30.9611 168.471 29.6883C168.955 28.4155 169.196 26.99 169.196 25.4117C169.196 23.8335 168.955 22.408 168.471 21.1352C167.988 19.8369 167.302 18.7423 166.412 17.8514C165.522 16.935 164.441 16.2349 163.169 15.7513C161.923 15.2422 160.525 14.9876 158.973 14.9876C157.422 14.9876 156.024 15.2422 154.778 15.7513C153.531 16.2349 152.463 16.935 151.573 17.8514C150.683 18.7423 149.997 19.8369 149.514 21.1352C149.03 22.408 148.789 23.8335 148.789 25.4117Z" fill="white"/>
<path d="M183.437 31.712C182.572 31.712 181.835 31.5338 181.224 31.1775C180.614 30.8211 180.118 30.3629 179.737 29.8028C179.381 29.2174 179.114 28.5428 178.936 27.7791C178.783 27.0154 178.707 26.239 178.707 25.4499C178.707 24.6353 178.783 23.8462 178.936 23.0825C179.088 22.3189 179.342 21.6443 179.698 21.0588C180.08 20.4733 180.563 20.0024 181.148 19.646C181.758 19.2642 182.508 19.0732 183.398 19.0732C184.263 19.0732 184.988 19.2642 185.573 19.646C186.183 20.0024 186.679 20.486 187.06 21.097C187.442 21.6825 187.709 22.357 187.861 23.1207C188.039 23.8844 188.128 24.6608 188.128 25.4499C188.128 26.239 188.052 27.0154 187.9 27.7791C187.747 28.5428 187.48 29.2174 187.099 29.8028C186.742 30.3629 186.259 30.8211 185.649 31.1775C185.064 31.5338 184.327 31.712 183.437 31.712ZM173.481 15.5222V42.1743H178.897V32.8193H178.974C179.635 33.7867 180.474 34.5249 181.491 35.034C182.534 35.5177 183.665 35.7595 184.886 35.7595C186.336 35.7595 187.594 35.4795 188.662 34.9194C189.756 34.3594 190.659 33.6085 191.371 32.6666C192.108 31.7248 192.655 30.6429 193.011 29.421C193.367 28.1991 193.545 26.9263 193.545 25.6026C193.545 24.2026 193.367 22.8662 193.011 21.5934C192.655 20.2951 192.108 19.1623 191.371 18.195C190.633 17.2277 189.705 16.4513 188.586 15.8658C187.467 15.2803 186.132 14.9876 184.581 14.9876C183.36 14.9876 182.241 15.2294 181.224 15.7131C180.207 16.1967 179.368 16.9731 178.707 18.0423H178.63V15.5222H173.481Z" fill="white"/>
<path d="M128 58.2911V85.5542H147.428V80.514H133.989V58.2911H128Z" fill="white"/>
<path d="M164.076 73.5645H155.265C155.29 73.1827 155.366 72.75 155.494 72.2663C155.646 71.7826 155.888 71.3244 156.218 70.8917C156.574 70.4589 157.032 70.1026 157.592 69.8225C158.176 69.5171 158.901 69.3643 159.766 69.3643C161.088 69.3643 162.067 69.7207 162.703 70.4335C163.364 71.1462 163.822 72.1899 164.076 73.5645ZM155.265 77.0011H169.493C169.594 75.4737 169.467 74.01 169.111 72.6099C168.755 71.2099 168.17 69.9626 167.357 68.868C166.568 67.7734 165.551 66.9079 164.305 66.2715C163.059 65.6096 161.597 65.2787 159.918 65.2787C158.418 65.2787 157.045 65.546 155.799 66.0806C154.578 66.6151 153.523 67.3533 152.633 68.2952C151.743 69.2116 151.056 70.3062 150.573 71.579C150.09 72.8518 149.848 74.2264 149.848 75.7028C149.848 77.2302 150.077 78.6302 150.535 79.903C151.018 81.1758 151.692 82.2704 152.556 83.1868C153.421 84.1032 154.476 84.816 155.722 85.3251C156.969 85.8087 158.367 86.0506 159.918 86.0506C162.156 86.0506 164.063 85.5415 165.64 84.5232C167.217 83.505 168.386 81.8122 169.149 79.4448H164.381C164.203 80.0558 163.72 80.6412 162.932 81.2013C162.143 81.7358 161.203 82.0031 160.109 82.0031C158.583 82.0031 157.414 81.6086 156.6 80.8194C155.786 80.0303 155.341 78.7575 155.265 77.0011Z" fill="white"/>
<path d="M187.467 75.6265C187.467 76.441 187.391 77.2302 187.238 77.9938C187.086 78.7575 186.831 79.4448 186.475 80.0558C186.119 80.6412 185.636 81.1122 185.026 81.4685C184.441 81.8249 183.704 82.0031 182.814 82.0031C181.974 82.0031 181.25 81.8249 180.639 81.4685C180.054 81.0867 179.558 80.603 179.152 80.0176C178.77 79.4066 178.49 78.7193 178.312 77.9557C178.134 77.192 178.045 76.4283 178.045 75.6646C178.045 74.8501 178.122 74.0737 178.274 73.3354C178.452 72.5718 178.719 71.8972 179.075 71.3117C179.457 70.7262 179.953 70.2553 180.563 69.8989C181.173 69.5425 181.923 69.3643 182.814 69.3643C183.704 69.3643 184.441 69.5425 185.026 69.8989C185.611 70.2553 186.081 70.7262 186.437 71.3117C186.819 71.8717 187.086 72.5336 187.238 73.2973C187.391 74.0355 187.467 74.8119 187.467 75.6265ZM187.543 83.0341V85.5542H192.693V58.2911H187.276V68.2188H187.2C186.59 67.2515 185.751 66.526 184.683 66.0424C183.64 65.5333 182.534 65.2787 181.364 65.2787C179.915 65.2787 178.643 65.5714 177.55 66.1569C176.456 66.7169 175.541 67.4679 174.803 68.4097C174.091 69.3516 173.544 70.4462 173.163 71.6935C172.807 72.9154 172.629 74.1882 172.629 75.5119C172.629 76.8865 172.807 78.2102 173.163 79.483C173.544 80.7558 174.091 81.8886 174.803 82.8813C175.541 83.8487 176.469 84.6251 177.588 85.2105C178.707 85.7706 180.004 86.0506 181.478 86.0506C182.775 86.0506 183.932 85.8215 184.95 85.3633C185.992 84.8796 186.831 84.1032 187.467 83.0341H187.543Z" fill="white"/>
<path d="M206.743 80.8958C205.904 80.8958 205.204 80.7176 204.645 80.3612C204.085 80.0048 203.628 79.5466 203.272 78.9866C202.941 78.4266 202.699 77.8029 202.547 77.1156C202.42 76.4029 202.356 75.6901 202.356 74.9773C202.356 74.2391 202.432 73.5391 202.585 72.8772C202.763 72.1899 203.03 71.5917 203.386 71.0826C203.767 70.548 204.225 70.128 204.759 69.8225C205.319 69.5171 205.98 69.3643 206.743 69.3643C207.633 69.3643 208.37 69.5298 208.955 69.8607C209.54 70.1916 210.01 70.6371 210.366 71.1972C210.722 71.7572 210.977 72.4063 211.129 73.1445C211.282 73.8573 211.358 74.621 211.358 75.4355C211.358 76.1483 211.256 76.8356 211.053 77.4975C210.875 78.1338 210.595 78.7066 210.214 79.2157C209.832 79.7248 209.349 80.1321 208.764 80.4376C208.179 80.7431 207.506 80.8958 206.743 80.8958ZM216.508 84.2941V65.8133H211.358V68.4479H211.282C210.621 67.3024 209.794 66.4878 208.802 66.0042C207.836 65.5205 206.705 65.2787 205.408 65.2787C204.034 65.2787 202.814 65.546 201.746 66.0806C200.703 66.6151 199.826 67.3406 199.114 68.257C198.402 69.148 197.855 70.1917 197.474 71.3881C197.118 72.559 196.94 73.7809 196.94 75.0537C196.94 76.4029 197.092 77.6884 197.397 78.9102C197.728 80.1067 198.236 81.1631 198.923 82.0795C199.61 82.9704 200.487 83.6832 201.555 84.2178C202.623 84.7269 203.895 84.9814 205.369 84.9814C206.565 84.9814 207.696 84.7396 208.764 84.256C209.858 83.7468 210.697 82.9704 211.282 81.9268H211.358V84.5232C211.384 85.9233 211.04 87.0815 210.328 87.9979C209.642 88.9143 208.535 89.3726 207.01 89.3726C206.043 89.3726 205.191 89.1689 204.454 88.7616C203.717 88.3798 203.221 87.6797 202.966 86.6615H197.588C197.664 87.7816 197.969 88.7362 198.503 89.5253C199.063 90.3399 199.75 91.0017 200.563 91.5108C201.402 92.02 202.318 92.3891 203.31 92.6182C204.327 92.8727 205.319 93 206.285 93C208.548 93 210.354 92.6945 211.701 92.0836C213.049 91.4727 214.079 90.7217 214.791 89.8308C215.503 88.9653 215.961 88.0234 216.164 87.0052C216.393 85.9869 216.508 85.0833 216.508 84.2941Z" fill="white"/>
<path d="M234.906 73.5645H226.095C226.12 73.1827 226.196 72.75 226.323 72.2663C226.476 71.7826 226.718 71.3244 227.048 70.8917C227.404 70.4589 227.862 70.1026 228.421 69.8225C229.006 69.5171 229.731 69.3643 230.596 69.3643C231.918 69.3643 232.897 69.7207 233.533 70.4335C234.194 71.1462 234.652 72.1899 234.906 73.5645ZM226.095 77.0011H240.322C240.424 75.4737 240.297 74.01 239.941 72.6099C239.585 71.2099 239 69.9626 238.186 68.868C237.398 67.7734 236.381 66.9079 235.135 66.2715C233.889 65.6096 232.427 65.2787 230.748 65.2787C229.248 65.2787 227.875 65.546 226.629 66.0806C225.408 66.6151 224.353 67.3533 223.463 68.2952C222.573 69.2116 221.886 70.3062 221.403 71.579C220.92 72.8518 220.678 74.2264 220.678 75.7028C220.678 77.2302 220.907 78.6302 221.365 79.903C221.848 81.1758 222.522 82.2704 223.386 83.1868C224.251 84.1032 225.306 84.816 226.552 85.3251C227.798 85.8087 229.197 86.0506 230.748 86.0506C232.986 86.0506 234.893 85.5415 236.47 84.5232C238.046 83.505 239.216 81.8122 239.979 79.4448H235.211C235.033 80.0558 234.55 80.6412 233.762 81.2013C232.973 81.7358 232.032 82.0031 230.939 82.0031C229.413 82.0031 228.243 81.6086 227.43 80.8194C226.616 80.0303 226.171 78.7575 226.095 77.0011Z" fill="white"/>
<path d="M244.298 65.8133V85.5542H249.714V76.6574C249.714 75.7665 249.803 74.9391 249.981 74.1755C250.159 73.4118 250.452 72.75 250.859 72.1899C251.291 71.6045 251.85 71.1462 252.537 70.8153C253.224 70.4844 254.063 70.3189 255.055 70.3189C255.385 70.3189 255.728 70.3444 256.085 70.3953C256.441 70.4208 256.746 70.4589 257 70.5099V65.4696C256.568 65.3423 256.174 65.2787 255.818 65.2787C255.131 65.2787 254.47 65.3805 253.834 65.5842C253.198 65.7878 252.601 66.0805 252.041 66.4624C251.482 66.8188 250.986 67.2642 250.554 67.7988C250.121 68.3079 249.778 68.868 249.524 69.4789H249.447V65.8133H244.298Z" fill="white"/>
<line x1="104.5" x2="104.5" y2="96" stroke="white"/>
<path d="M57 31H23V65H57V31Z" fill="white"/>
<path fill-rule="evenodd" clip-rule="evenodd" d="M0 8H80V88H0V8ZM7.5 15.5H72.5V80.5H7.5V15.5Z" fill="white"/>
</svg>
